<svg width="61" height="61" viewBox="0 0 61 61" fill="none" xmlns="http://www.w3.org/2000/svg">
<path d="M44.8778 42.3362C41.9123 45.3017 34.9154 52.2985 31.9109 55.303C31.1299 56.0841 29.8708 56.0849 29.0898 55.3038C26.1327 52.3467 19.2951 45.5091 16.1221 42.3362C8.18146 34.3955 8.18146 21.5212 16.1221 13.5805C24.0628 5.63984 36.9371 5.63984 44.8778 13.5805C52.8185 21.5212 52.8185 34.3955 44.8778 42.3362Z" stroke="#111827" stroke-width="2" stroke-linecap="round" stroke-linejoin="round"/>
<path d="M38.125 27.9583C38.125 32.1695 34.7111 35.5833 30.5 35.5833C26.2888 35.5833 22.875 32.1695 22.875 27.9583C22.875 23.7472 26.2888 20.3333 30.5 20.3333C34.7111 20.3333 38.125 23.7472 38.125 27.9583Z" stroke="#111827" stroke-width="2" stroke-linecap="round" stroke-linejoin="round"/>
</svg>
